<svg width="26" height="22" viewBox="0 0 26 22" fill="none" xmlns="http://www.w3.org/2000/svg">
<path d="M21.9986 4.19074H20.9521V4.19044C20.9521 3.61187 20.4831 3.14286 19.9045 3.14286C19.3259 3.14286 18.8569 3.61187 18.8569 4.19044V4.19074H17.8093V3.13755C17.8093 1.40454 16.4048 0 14.6718 0H10.4709C8.73784 0 7.3333 1.40454 7.3333 3.13755V4.19069H6.28562V4.19039C6.28562 3.61182 5.8166 3.14281 5.23803 3.14281C4.65946 3.14281 4.19044 3.61182 4.19044 4.19039V4.19069H3.14384C1.40768 4.19074 0 5.59837 0 7.33458V18.8551C0 20.5921 1.40744 22 3.14384 22H21.9986C23.735 22 25.1424 20.5921 25.1424 18.8551V7.33458C25.1425 5.59837 23.7348 4.19074 21.9986 4.19074ZM9.42842 3.13755C9.42842 2.56168 9.89489 2.09517 10.4708 2.09517H14.6717C15.2476 2.09517 15.7141 2.56163 15.7141 3.13755V4.19039H9.42842V3.13755ZM18.8568 6.28591V19.9047H6.28562V6.28591H18.8568ZM2.09522 18.8551V7.33458C2.09522 6.75556 2.56483 6.28591 3.14389 6.28591H4.19044V19.9047H3.14384C2.56473 19.9048 2.09522 19.435 2.09522 18.8551ZM23.0472 18.8551C23.0472 19.4351 22.5777 19.9048 21.9986 19.9048H20.952V6.28591H21.9986C22.5776 6.28591 23.0472 6.75552 23.0472 7.33458V18.8551Z" fill="#FF9442"/>
</svg>
