<svg width="23" height="22" viewBox="0 0 23 22" fill="none" xmlns="http://www.w3.org/2000/svg">
<path fill-rule="evenodd" clip-rule="evenodd" d="M11.5 2C6.81535 2 3.28571 5.27307 3.28571 9V10.6816C3.39393 10.6717 3.50353 10.6667 3.61429 10.6667H7.55714C8.10153 10.6667 8.54286 11.1144 8.54286 11.6667V21C8.54286 21.5523 8.10153 22 7.55714 22H3.61429C1.61818 22 0 20.3584 0 18.3333V14.3333C0 13.1947 0.511586 12.1773 1.31429 11.5048V9C1.31429 3.89037 6.02261 0 11.5 0C16.9774 0 21.6857 3.89037 21.6857 9V11.5048C22.4885 12.1773 23 13.1947 23 14.3333V18.3333C23 20.3584 21.3819 22 19.3857 22H15.4429C14.8985 22 14.4571 21.5523 14.4571 21V11.6667C14.4571 11.1144 14.8985 10.6667 15.4429 10.6667H19.3857C19.4965 10.6667 19.6061 10.6717 19.7143 10.6816V9C19.7143 5.27307 16.1846 2 11.5 2ZM3.61429 12.6667C2.70696 12.6667 1.97143 13.4128 1.97143 14.3333V18.3333C1.97143 19.2539 2.70696 20 3.61429 20H6.57143V12.6667H3.61429ZM21.0286 14.3333C21.0286 13.4128 20.2931 12.6667 19.3857 12.6667H16.4286V20H19.3857C20.2931 20 21.0286 19.2539 21.0286 18.3333V14.3333Z" fill="#FF9442"/>
</svg>
