<svg width="30" height="31" viewBox="0 0 30 31" fill="none" xmlns="http://www.w3.org/2000/svg">
<rect width="30" height="31" rx="5" fill="white"/>
<path d="M22.5461 9.46915C21.6035 8.5266 20.3557 8.01145 19.0239 8.01145C17.6922 8.01145 16.4405 8.53042 15.498 9.47297L15.0057 9.96523L14.5058 9.46533C13.5633 8.52279 12.3078 8 10.9761 8C9.64809 8 8.39645 8.51897 7.45772 9.4577C6.51518 10.4002 5.9962 11.6519 6.00002 12.9837C6.00002 14.3154 6.52281 15.5633 7.46536 16.5058L14.6318 23.6722C14.731 23.7714 14.8645 23.8249 14.9943 23.8249C15.124 23.8249 15.2576 23.7752 15.3568 23.676L22.5385 16.5211C23.481 15.5785 24 14.3269 24 12.9951C24.0038 11.6633 23.4886 10.4117 22.5461 9.46915ZM21.8134 15.7922L14.9943 22.5847L8.19039 15.7808C7.44246 15.0328 7.03033 14.0407 7.03033 12.9837C7.03033 11.9266 7.43864 10.9345 8.18658 10.1904C8.93069 9.44625 9.92284 9.03413 10.9761 9.03413C12.0331 9.03413 13.029 9.44625 13.777 10.1942L14.6394 11.0566C14.8416 11.2588 15.166 11.2588 15.3682 11.0566L16.223 10.2018C16.971 9.45389 17.9669 9.04176 19.0201 9.04176C20.0733 9.04176 21.0655 9.45389 21.8134 10.198C22.5614 10.9459 22.9697 11.9381 22.9697 12.9951C22.9735 14.0521 22.5614 15.0443 21.8134 15.7922Z" fill="black"/>
</svg>
