<svg width="22" height="22" viewBox="0 0 22 22" fill="none" xmlns="http://www.w3.org/2000/svg">
<path d="M0 22H22V0H0L0 22ZM21.12 16.4669V21.12H0.879986L0.879986 16.4669H21.12ZM21.12 6.4131V15.5869H11.44L11.44 6.4131L21.12 6.4131ZM10.56 6.4131L10.56 15.5869H0.879986L0.879986 6.4131H10.56ZM21.12 0.880032V5.53311H0.879986L0.879986 0.880032H21.12Z" fill="#FF9442"/>
<path d="M1.81494 4.73047H4.79309V1.75231H1.81494L1.81494 4.73047ZM3.91311 2.6323V3.85048H2.69493V2.6323H3.91311Z" fill="#FF9442"/>
<path d="M5.66284 4.73047H8.641V1.75231H5.66284V4.73047ZM7.76101 2.6323V3.85048H6.54283V2.6323H7.76101Z" fill="#FF9442"/>
<path d="M9.51123 4.73047H12.489V1.75231H9.51123V4.73047ZM11.6089 2.6323V3.85048H10.3912V2.6323H11.6089Z" fill="#FF9442"/>
<path d="M13.3589 4.73047H16.337V1.75231H13.3589V4.73047ZM15.4571 2.6323V3.85048H14.2389V2.6323H15.4571Z" fill="#FF9442"/>
<path d="M17.2068 4.73047H20.1849V1.75231H17.2068V4.73047ZM19.305 2.6323V3.85048H18.0868V2.6323H19.305Z" fill="#FF9442"/>
<path d="M1.81494 20.2476H4.79309V17.2696H1.81494L1.81494 20.2476ZM3.91311 18.1496V19.3675H2.69493V18.1496H3.91311V18.1496Z" fill="#FF9442"/>
<path d="M5.66284 20.2476H8.641V17.2696H5.66284V20.2476ZM7.76101 18.1496V19.3675H6.54283V18.1496H7.76101V18.1496Z" fill="#FF9442"/>
<path d="M9.51123 20.2476H12.489V17.2696H9.51123V20.2476ZM11.6089 18.1496V19.3675H10.3912V18.1496H11.6089V18.1496Z" fill="#FF9442"/>
<path d="M13.3589 20.2476H16.337V17.2696H13.3589V20.2476ZM15.4571 18.1496V19.3675H14.2389V18.1496H15.4571V18.1496Z" fill="#FF9442"/>
<path d="M17.2068 20.2476H20.1849V17.2696H17.2068V20.2476ZM19.305 18.1496V19.3675H18.0868V18.1496H19.305V18.1496Z" fill="#FF9442"/>
</svg>
