<svg width="12" height="15" viewBox="0 0 12 15" fill="none" xmlns="http://www.w3.org/2000/svg">
<path d="M10.4063 9C11.2604 9 11.9579 9.67159 11.9982 10.516L12 10.5933V10.875C12 12.2833 11.2719 13.3376 10.1549 14.0176C9.05659 14.6862 7.58021 15 6 15C4.41979 15 2.94341 14.6862 1.84508 14.0176C0.761973 13.3582 0.0444858 12.3469 0.00199628 11.0021L0 10.875V10.5933C0 9.73888 0.672356 9.04209 1.51651 9.00184L1.59371 9H10.4063ZM10.4063 9.9375H1.59371C1.24925 9.9375 0.967035 10.2025 0.939674 10.5395L0.9375 10.5933V10.875C0.9375 11.9042 1.44757 12.678 2.33257 13.2168C3.23614 13.7669 4.52539 14.0625 6 14.0625C7.47461 14.0625 8.76386 13.7669 9.66743 13.2168C10.5208 12.6973 11.0256 11.9591 11.0606 10.9843L11.0625 10.875V10.5933C11.0625 10.2492 10.7975 9.96703 10.4602 9.93967L10.4063 9.9375ZM6 0C8.07105 0 9.75 1.67893 9.75 3.75C9.75 5.82105 8.07105 7.5 6 7.5C3.92895 7.5 2.25 5.82105 2.25 3.75C2.25 1.67893 3.92895 0 6 0ZM6 0.9375C4.44671 0.9375 3.1875 2.1967 3.1875 3.75C3.1875 5.30329 4.44671 6.5625 6 6.5625C7.55329 6.5625 8.8125 5.30329 8.8125 3.75C8.8125 2.1967 7.55329 0.9375 6 0.9375Z" fill="#FF9442"/>
</svg>
