<svg width="21" height="19" viewBox="0 0 21 19" fill="none" xmlns="http://www.w3.org/2000/svg">
<path d="M4.18616 16.0822L3.43619 15.0788C2.73001 14.1339 2.83429 12.8119 3.67986 11.9894L4.98522 10.7197C5.70596 10.0187 6.793 9.85422 7.68886 10.3107L9.27783 11.1203C9.29746 11.1303 9.31877 11.1366 9.3407 11.139C9.64938 11.1718 10.2787 10.7227 11.1143 9.72692C12.0561 8.60453 12.3343 7.90071 12.1716 7.68162L11.0941 6.25178C10.4892 5.44901 10.4622 4.35028 11.027 3.5188L12.0454 2.01971C12.7065 1.04651 13.9857 0.712655 15.038 1.23868L16.1615 1.80027C16.9552 2.19694 17.5043 2.95699 17.6317 3.83502C18.0044 6.40397 16.86 9.24371 14.2481 12.3565C11.6336 15.4723 9.03316 17.0926 6.43599 17.1686C5.55389 17.1944 4.71447 16.7891 4.18616 16.0822ZM5.05437 15.4334C5.37135 15.8575 5.87501 16.1007 6.40427 16.0852C8.64211 16.0197 10.9835 14.5608 13.4178 11.6597C15.8497 8.76149 16.8802 6.20438 16.559 3.99065C16.4826 3.46384 16.1531 3.00781 15.6769 2.76981L14.5534 2.20822C13.9867 1.92497 13.2979 2.10474 12.942 2.62877L11.9237 4.12786C11.6195 4.57558 11.634 5.16721 11.9598 5.59946L13.0395 7.03234C13.6303 7.82788 13.1919 8.93727 11.9446 10.4236C10.8888 11.6819 10.0208 12.3013 9.2261 12.2168C9.07253 12.2005 8.92326 12.1561 8.7857 12.086L7.19677 11.2764C6.71439 11.0307 6.12906 11.1192 5.74097 11.4967L4.43561 12.7664C3.9803 13.2092 3.92415 13.9211 4.3044 14.4299L5.05437 15.4334Z" fill="#FF9442"/>
</svg>
