<svg width="27" height="22" viewBox="0 0 27 22" fill="none" xmlns="http://www.w3.org/2000/svg">
<path d="M0 6.70592V18.619C0 20.4373 1.47673 21.9141 3.2951 21.9141H23.7049C25.5233 21.9141 27 20.4373 27 18.619V6.70592C27 4.97571 25.5949 3.57061 23.8647 3.57061H19.4786L19.3739 3.11327C18.9496 1.27837 17.3351 0 15.4506 0H11.5439C9.6649 0 8.05041 1.27837 7.62061 3.11327L7.51592 3.57061H3.13531C1.4051 3.57061 0 4.98122 0 6.70592ZM8.05592 4.92061C8.37 4.92061 8.64 4.70571 8.71163 4.39714L8.93755 3.41633C9.22408 2.19857 10.2931 1.35 11.5439 1.35H15.4506C16.7014 1.35 17.7704 2.19857 18.0569 3.41633L18.2829 4.39714C18.3545 4.7002 18.6245 4.92061 18.9386 4.92061H23.8592C24.8455 4.92061 25.6445 5.71959 25.6445 6.70592V18.619C25.6445 19.6935 24.7739 20.5641 23.6994 20.5641H3.2951C2.22061 20.5641 1.35 19.6935 1.35 18.619V6.70592C1.35 5.71959 2.14898 4.92061 3.13531 4.92061H8.05592Z" fill="#FF9442"/>
<path d="M4.56798 8.70627C5.06707 8.70627 5.47165 8.30168 5.47165 7.8026C5.47165 7.30351 5.06707 6.89893 4.56798 6.89893C4.0689 6.89893 3.66431 7.30351 3.66431 7.8026C3.66431 8.30168 4.0689 8.70627 4.56798 8.70627Z" fill="#FF9442"/>
<path d="M13.5001 18.4482C16.6244 18.4482 19.1701 15.9024 19.1701 12.7782C19.1701 9.65387 16.6244 7.10815 13.5001 7.10815C10.3758 7.10815 7.83008 9.64836 7.83008 12.7782C7.83008 15.908 10.3758 18.4482 13.5001 18.4482ZM13.5001 8.45815C15.8805 8.45815 17.8201 10.3977 17.8201 12.7782C17.8201 15.1586 15.8805 17.0982 13.5001 17.0982C11.1197 17.0982 9.18008 15.1586 9.18008 12.7782C9.18008 10.3977 11.1197 8.45815 13.5001 8.45815Z" fill="#FF9442"/>
</svg>
