<svg width="30" height="31" viewBox="0 0 30 31" fill="none" xmlns="http://www.w3.org/2000/svg">
<rect width="30" height="31" rx="5" fill="white"/>
<path d="M5.88544 23.245C5.88544 23.4697 5.97389 23.6836 6.13286 23.8426C6.29182 24.0015 6.50577 24.09 6.73048 24.09L11.8019 24.09C12.2692 24.09 12.6469 23.7123 12.6469 23.245C12.6469 22.7776 12.2692 22.3999 11.8019 22.3999L9.09109 22.6174L13.5732 18.2561C13.9037 17.9256 13.9037 17.3913 13.5732 17.0608C13.2428 16.7303 12.7085 16.7303 12.378 17.0608L7.80202 21.3284L7.57612 18.1741C7.57612 17.941 7.48169 17.7295 7.3287 17.5765C7.17571 17.4235 6.96415 17.3291 6.73108 17.3291C6.26374 17.3291 5.88604 17.7068 5.88604 18.1741L5.88544 23.245Z" fill="black"/>
<path d="M23.0279 8.61086C23.02 8.38629 22.9242 8.17556 22.7597 8.02223C22.5953 7.86891 22.3784 7.78798 22.1539 7.79583L17.0855 7.97282C16.6185 7.98913 16.2542 8.37978 16.2705 8.84683C16.2868 9.31389 16.6774 9.67817 17.1445 9.66186L19.8461 9.34986L15.5189 13.865C15.2001 14.2068 15.2188 14.7408 15.5606 15.0595C15.9024 15.3783 16.4364 15.3597 16.7551 15.0178L21.1793 10.5932L21.5152 13.7376C21.5233 13.9705 21.6251 14.1787 21.7833 14.3262C21.9416 14.4738 22.1563 14.5608 22.3892 14.5526C22.8563 14.5363 23.2206 14.1457 23.2042 13.6786L23.0279 8.61086Z" fill="black"/>
</svg>
